<svg id="asterix" xmlns="http://www.w3.org/2000/svg" width="250" height="250" viewBox="0 0 250 250">
  <path id="asterix-2" data-name="asterix" d="M133.679,128.02c1.117.33.8-.3,1.09-.648,14.595-17.622,30.215-36.316,47.371-51.119,1.815-1.568,8.747-7.715,10.269-8.367.92-.395,4.067-.656,4.278.5.283,1.525-10.681,16.481-12.425,18.759-13.171,17.216-28.767,32.049-42.718,48.486-.725.858-6.093,6.991-5.48,7.621,28.921-2.253,57.824-4.7,86.571-8.7,5.259-.732,18.519-4.14,22.742-2.713,1.938.656,6.175,3.314,4.043,5.81-1.087,1.271-8.522,2.9-10.627,3.427-29.949,7.545-61.537,9.624-92.232,11.323,16.972,15.34,35.3,28.93,52.729,43.676,7.03,5.948,15.3,12.5,21.747,19.009,3,3.032,3.488,4.564-1.315,5.723-7.6,1.836-15.695-4.575-22.044-8.805-23.219-15.481-42.882-36.1-63.526-55.039.477,34.1-1.124,68.216-.5,102.315.054,3.028,1.662,7.375-.668,9.9-2.112,2.289-9.247,2.173-11.257-.268-2.027-2.463-.5-6.8-.446-9.639.616-32.27-.579-64.5-.978-96.73a222.04,222.04,0,0,0-13.818,17.535A381.213,381.213,0,0,0,79.35,222.291c-1.72,3.148-5.657,12.877-7.418,14.7-2.548,2.641-12.081,2.507-12.732-1.634-.31-1.956,3.123-7.628,4.22-9.7,13.3-25.225,29.833-46.222,46.853-68.459.361-.475,2.752-3.466,2.4-3.792-36.717,1.452-73.645,1.789-110.055,8.048l-2.6-1.706c-.32-1.594,5.821-2.362,7.071-2.626,12.623-2.648,26.254-4.564,39.053-6.19,24.469-3.108,49.118-4.716,73.693-6.665l-.453-1.8L50.147,75.974c-.3-1.416,2.759-1.851,3.818-1.547,1.969.561,8.484,5.89,10.651,7.491,18.886,14,35.249,30.285,53.311,44.835.477.384.6.989,1.431.757.409-2.333-.426-4.662-.494-6.831-.6-18.473-.627-36.877-.916-55.375-.2-12.634-1.928-30.462-.521-42.647a2.814,2.814,0,0,1,.232-1.279l.572-.4c1.689-.072,4.094-.728,4.826,1.326,7.265,34.639,10,70.313,10.627,105.716Z" transform="translate(-0.005 -20.819)" fill="#ffe32e"/>
</svg>
