<svg id="plumIconColor" xmlns="http://www.w3.org/2000/svg" width="180" height="180" viewBox="0 0 180 180">
  <circle id="Ellipse_1" data-name="Ellipse 1" cx="90" cy="90" r="90" fill="#fcdca6"/>
  <g id="plumIcon" transform="translate(42 34)">
    <path id="Exclusion_1" data-name="Exclusion 1" d="M-5848,96h-3V48h3V40h-8v8h3V96h-3V88h-4V80h-4V72h-4V64h-8V56h-4V48h4V32h4V24h4V16h4V8h-8V0h40V8h-8v8h4v8h4v8h4V48h4v8h-4v8h-8v8h-4v8h-4v8h-4v8Zm-4-80h0Z" transform="translate(5140.23 2940) rotate(30)"/>
  </g>
</svg>
